<?xml version="1.0" standalone="no"?>
<svg id="Vector" width="250" height="250" viewBox="0 0 250 250" fill="none" xmlns="http://www.w3.org/2000/svg" style="max-width: 100%; max-height: 100%;">
<path d="M125 114.5C137.644 114.5 147.955 124.485 148.479 137H101.521C102.045 124.485 112.356 114.5 125 114.5ZM101.5 138H148.5V138.5H149H150H150.5V138C150.5 124.571 140.119 113.566 126.943 112.573C127.291 112.143 127.5 111.596 127.5 111C127.5 109.619 126.381 108.5 125 108.5C123.619 108.5 122.5 109.619 122.5 111C122.5 111.596 122.709 112.143 123.057 112.573C109.881 113.566 99.5 124.571 99.5 138V138.5H100H101H101.5V138ZM150 143V142H100V143H150ZM118.831 119V118.271L118.151 118.534C114.949 119.769 112.06 121.632 109.634 123.971C109.532 124.069 109.431 124.168 109.331 124.268C109.094 124.505 108.861 124.745 108.633 124.991L107.854 125.831H109H110.389H110.596L110.742 125.685C112.947 123.488 115.586 121.726 118.518 120.539L118.831 120.412V120.075V119ZM125 249.5C56.2406 249.5 0.5 193.759 0.5 125C0.5 56.2406 56.2406 0.5 125 0.5C193.759 0.5 249.5 56.2406 249.5 125C249.5 193.759 193.759 249.5 125 249.5ZM125 199.5C83.8548 199.5 50.5 166.145 50.5 125C50.5 83.8548 83.8548 50.5 125 50.5C166.145 50.5 199.5 83.8548 199.5 125C199.5 166.145 166.145 199.5 125 199.5ZM49.5 125C49.5 166.697 83.3025 200.5 125 200.5C166.697 200.5 200.5 166.697 200.5 125C200.5 83.3025 166.697 49.5 125 49.5C83.3025 49.5 49.5 83.3025 49.5 125ZM126.5 111C126.5 111.828 125.828 112.5 125 112.5C124.172 112.5 123.5 111.828 123.5 111C123.5 110.172 124.172 109.5 125 109.5C125.828 109.5 126.5 110.172 126.5 111Z" stroke="black" stroke-dasharray="0,0,0,2123.977294921875"><animate attributeType="XML" attributeName="stroke-dasharray" repeatCount="indefinite" dur="5s" values="0,0,0,2123.977294921875; 
          0,1061.9886474609375,1061.9886474609375,0; 
          2123.977294921875,0,0,0" keyTimes="0; 0.5; 1" fill="freeze">
          
          </animate></path>
</svg>